<?xml version="1.0" encoding="UTF-8"?>
<svg id="Capa_1" xmlns="http://www.w3.org/2000/svg" version="1.1" viewBox="0 0 32 32">
  <!-- Generator: Adobe Illustrator 30.3.0, SVG Export Plug-In . SVG Version: 2.1.3 Build 182)  -->
  <defs>
    <style>
      .st0 {
        fill: #c79f55;
      }
    </style>
  </defs>
  <g>
    <path d="M18.29,18.97h-.25v-.62c0-.05,0-.13,0-.14h0s-.02.08-.04.11l-.28.65h-.13l-.29-.66s-.03-.09-.03-.1h0s0,.09,0,.14v.62s-.24,0-.24,0v-1.17h.27l.29.62c.03.07.07.18.08.21h0s.05-.13.08-.21l.28-.62h.26v1.17Z"/>
    <path d="M19.65,18.97h-.28l-.2-.33s-.05-.09-.06-.11h0s-.03.07-.06.11l-.21.33h-.26l.35-.57-.36-.6h.29l.19.36s.05.09.05.1h0s.03-.07.05-.1l.21-.36h.26l-.36.59.37.57Z"/>
  </g>
  <g>
    <path d="M.2,17.63c0-.47.33-.85.7-1.09.48-.31.95-.38.97-.7,0-.13-.04-.35-.21-.36l-.74-.02v.49s-.72.46-.72.46v-1.63s1.37,0,1.37,0c.28,0,.6.14.77.34.34.39.33.92.03,1.31.41.16.7.49.8.86.13.47,0,.92-.32,1.25-.3.31-.72.45-1.15.45H.19s0-1.36,0-1.36ZM1.93,18.3c.29-.05.5-.25.55-.48.06-.26-.02-.52-.24-.69-.23-.19-.53-.22-.82-.1-.21.09-.48.28-.48.56v.74s.99-.03.99-.03Z"/>
    <path d="M11.48,18.75c-.46.27-.95.3-1.43.15-.58-.18-.97-.71-.95-1.33l.69-.08c.04.24.08.46.24.62.24.23.62.26.92.14.21-.08.32-.26.34-.45.02-.21-.1-.42-.3-.53-.37-.2-1.06-.18-1.54-.64-.25-.24-.34-.58-.29-.94.12-.82,1.25-1.24,2.11-.8.39.2.63.56.67.99l-.7.11c-.06-.19-.12-.37-.28-.48-.27-.19-.65-.18-.92,0-.13.09-.2.23-.19.37.04.61,1.23.44,1.84,1.04.52.52.42,1.43-.23,1.81Z"/>
    <path d="M15.54,17.88h-1.52s-.35,1.04-.35,1.04h-.78s1.46-4.11,1.46-4.11h.82s1.47,4.1,1.47,4.1h-.75s-.36-1.02-.36-1.02ZM15.28,17.18l-.51-1.51-.5,1.53,1.01-.02Z"/>
    <g>
      <path d="M8.04,16.77c.16,1.27-.91,2.34-2.19,2.18-.87-.11-1.57-.81-1.68-1.68-.16-1.27.91-2.34,2.19-2.18.87.11,1.57.81,1.68,1.68ZM7.31,17.26c.16-.86-.58-1.59-1.43-1.43-.48.09-.86.48-.96.96-.16.86.58,1.59,1.43,1.43.48-.09.86-.48.96-.96Z"/>
      <rect x="4.61" y="14.03" width="3.01" height=".73"/>
    </g>
  </g>
  <g>
    <path d="M1.05,20.51v.16H.44v-.92h.2v.75h.41Z"/>
    <path d="M2.02,19.76v.55c0,.23-.15.37-.38.37s-.38-.14-.38-.37v-.55h.2v.55c0,.13.08.2.19.2s.18-.07.18-.2v-.55h.2Z"/>
    <path d="M3.1,20.68h-.22l-.16-.26s-.04-.08-.04-.09h0s-.02.05-.04.09l-.17.26h-.2l.27-.45-.28-.47h.23l.15.28s.04.07.04.08h0s.03-.05.04-.08l.17-.28h.21l-.28.47.29.45Z"/>
    <path d="M4.09,19.76v.55c0,.23-.15.37-.38.37s-.38-.14-.38-.37v-.55h.2v.55c0,.13.08.2.19.2s.18-.07.18-.2v-.55h.2Z"/>
    <path d="M5.16,20.68s-.04,0-.1,0c-.28,0-.2-.32-.41-.32h-.04v.31h-.2v-.92h.31c.24,0,.37.09.37.31,0,.13-.07.21-.18.26.1.05.1.2.22.2.02,0,.03,0,.03,0v.15ZM4.69,20.22c.12,0,.2-.05.2-.15s-.07-.16-.18-.16h-.1v.31h.09Z"/>
    <path d="M5.77,20.34v.33h-.2v-.33l-.31-.59h.21l.15.31s.04.09.04.11h0s.02-.08.04-.11l.15-.31h.21l-.31.58Z"/>
    <path d="M7.31,20.51v.16h-.61v-.92h.2v.75h.41Z"/>
    <path d="M7.56,19.76h.19v.92h-.19v-.92Z"/>
    <path d="M8.28,19.92v.22h.34v.16h-.34v.37h-.2v-.92h.59v.16h-.4Z"/>
    <path d="M9.14,19.92v.21h.36v.15h-.36v.23h.41v.16h-.61v-.92h.61v.16h-.41Z"/>
    <path d="M10.15,19.91c-.08,0-.13.04-.13.1,0,.17.48.07.48.42,0,.14-.12.26-.35.26-.19,0-.32-.08-.37-.13l.12-.14s.14.11.26.11c.1,0,.15-.03.15-.09,0-.18-.48-.09-.48-.41,0-.15.13-.27.33-.27.24,0,.32.14.34.24l-.18.04s-.05-.12-.16-.12Z"/>
    <path d="M10.95,19.92h-.28v-.16h.76v.16h-.28v.75h-.2v-.75Z"/>
    <path d="M12.09,20.34v.33h-.2v-.33l-.31-.59h.21l.15.31s.04.09.04.11h0s.02-.08.04-.11l.15-.31h.21l-.31.58Z"/>
    <path d="M13.25,20.51v.16h-.61v-.92h.2v.75h.41Z"/>
    <path d="M13.69,19.92v.21h.36v.15h-.36v.23h.41v.16h-.61v-.92h.61v.16h-.41Z"/>
    <path d="M15.43,20.51v.16h-.61v-.92h.2v.75h.41Z"/>
    <path d="M15.67,19.76h.19v.92h-.19v-.92Z"/>
    <path d="M16.5,20.38s.02.07.03.11h0s.02-.07.03-.1l.19-.62h.2l-.32.92h-.21l-.32-.92h.2l.19.61Z"/>
    <path d="M17.19,19.76h.19v.92h-.19v-.92Z"/>
    <path d="M18.49,20.68h-.19l-.3-.44c-.04-.06-.08-.13-.11-.17h0s0,.1,0,.17v.44s-.19,0-.19,0v-.92h.17l.31.46c.05.07.09.15.1.17h0s0-.1,0-.17v-.46s.19,0,.19,0v.92Z"/>
    <path d="M19.59,20.68h-.13s0-.05-.01-.1c-.05.07-.14.11-.26.11-.25,0-.41-.18-.41-.47s.18-.47.43-.47c.28,0,.37.19.37.33l-.18.03c0-.08-.05-.18-.19-.18-.13,0-.23.11-.23.3s.09.3.25.3c.13,0,.2-.07.2-.17h-.24v-.12h.41v.45Z"/>
  </g>
  <path class="st0" d="M27.34,16.03c.04-.16.18-.26.34-.27h.33s.09.01.12.04c.05.05.05.13.04.19l-.03.13-.43,1.59c-.03.1-.06.19-.1.29-.17.36-.47.65-.85.79-.19.07-.39.11-.59.12-.22.01-.43,0-.65-.04-.37-.07-.67-.32-.73-.7v-.13c-.02-.19.01-.37.06-.55l.38-1.43c.03-.18.17-.29.35-.3h.29s.1,0,.13.04c.04.04.08.1.06.16l-.03.12-.23.84-.17.65c-.03.1-.03.2-.02.3s.06.19.14.25c.1.08.22.11.35.12.36,0,.64-.2.77-.53.04-.09.06-.19.09-.29l.04-.17.16-.61.16-.61Z"/>
  <path class="st0" d="M31.5,17.05l-.16.61c-.03.11-.07.2-.12.3-.09.19-.21.35-.36.49-.3.28-.72.41-1.12.41h-1.45c-.12,0-.21-.1-.22-.21,0-.04-.01-.1,0-.14l1-3.53c.05-.17.23-.28.4-.29h.33s.09.03.12.06c.03.06.03.12.01.18l-.27.93c.25-.03.48-.05.73-.05.16,0,.32,0,.47.04.36.09.63.33.68.71.02.16.02.32-.03.49ZM30.54,17.58l.12-.44c.04-.14.05-.35-.05-.46-.07-.05-.15-.09-.24-.09h-.94s-.45,1.57-.45,1.57h.68s.26,0,.26,0c.23-.01.4-.13.52-.33.05-.08.08-.16.11-.25Z"/>
  <path class="st0" d="M19.77,21.38c.03-.21.09-.38.16-.56l.7-3.23c.03-.09-.04-.19-.15-.19h-.72c-.13-.02-.21-.15-.13-.25,0,0,2.44-3.17,2.44-3.17.16-.21.52-.05.44.19l-.61,1.89c-.03.09.05.19.16.19h.64c.13,0,.21.13.14.23-.17.24-.36.47-.53.71-.29.42-.54.88-.81,1.32l-.7,1.17c-.33.55-.67,1.11-1,1.66,0,0-.02.03-.02.04Z"/>
  <path class="st0" d="M22.93,18.53l.35-1.39s0,0,0,0h-.69s0-.02,0-.02l.68-.88s0,0,0,0h.24s0,0,0,0l.34-1.26c.05-.2.26-.34.49-.34h.42c.12,0,.2.11.18.22-.1.46-.22.9-.34,1.36l-.5,1.95-.17.61c-.04.13-.16.23-.3.23h-.28c-.27,0-.48-.23-.42-.47Z"/>
</svg>