<?xml version="1.0" encoding="UTF-8"?>
<svg id="Capa_1" xmlns="http://www.w3.org/2000/svg" version="1.1" viewBox="0 0 32 32">
  <!-- Generator: Adobe Illustrator 30.3.0, SVG Export Plug-In . SVG Version: 2.1.3 Build 182)  -->
  <defs>
    <style>
      .st0 {
        fill: #c79f55;
      }

      .st1 {
        fill: #fff;
      }

      .st2 {
        fill: #272233;
      }
    </style>
  </defs>
  <rect class="st2" width="32" height="32"/>
  <g>
    <path class="st1" d="M12.1,21.06l-1.28,2.58c-1.78-1.23-2.55-2.77-2.99-4.89-.52-2.65.26-5.37,2.1-7.35,1.72-1.83,3.67-2.79,6.22-2.59l-2.29,3.12c-2.37.7-3.45,2.88-3.39,5.37.06,1.52.46,2.71,1.63,3.75Z"/>
    <path class="st1" d="M17.39,7.1h-6.95c-.08,0-.14-.05-.14-.12v-2.38s8.94,0,8.94,0l-1.85,2.51Z"/>
    <g>
      <path class="st0" d="M11.08,27.37c-.2.26-.42.34-.52.2-.03-.04-.06-.1-.03-.18l3.68-9.2c.05-.14.02-.29-.04-.4-.05-.09-.19-.19-.33-.19h-2.08c-.14-.01-.28-.13-.33-.21-.07-.12-.1-.31,0-.44l3.22-4.37,3.7-5.08,2.4-3.36c.16-.22.45-.3.68-.21.21.08.45.37.36.64l-2.06,6.59-.95,2.99c-.08.25.1.51.35.52l.82.02c.2,0,.37.12.45.27.08.16.1.4-.02.57l-2.13,2.72-7.16,9.12Z"/>
      <path class="st1" d="M16.4,22.73c1,0,1.55-.25,2.4-.76,1.33-.81,2.27-2.13,2.6-3.65.38-1.8.13-3.35-1.14-4.68l1.03-2.98c2.68,1.96,3.57,5.09,2.84,8.31-.63,2.71-2.57,4.95-5.17,5.94-1.56.57-2.62.79-4.25.41l1.7-2.6Z"/>
    </g>
  </g>
</svg>